<?xml version="1.0" encoding="UTF-8"?><svg id="Layer_2" xmlns="http://www.w3.org/2000/svg" viewBox="0 0 1725.61 1573.51" preserveAspectRatio="none"><defs><style>.cls-1{stroke-miterlimit:10;stroke-width:100px;}</style></defs><g id="iconos"><path class="cls-1" d="m1639.45,316.54c-24.04-55.76-60.15-107.53-107.75-150.99-42.24-38.58-90.21-67.55-140.81-86.78-50.61-19.24-103.86-28.77-156.99-28.77-59.85,0-119.61,12.1-175.38,36.16-55.76,24.05-107.54,60.15-150.99,107.76l-44.72,48.98-44.73-48.98c-43.45-47.61-95.23-83.71-150.99-107.76-55.77-24.07-115.54-36.16-175.39-36.16-53.13,0-106.38,9.53-157,28.77-50.6,19.23-98.56,48.21-140.79,86.79-47.6,43.44-83.71,95.22-107.76,150.98-24.07,55.77-36.16,115.53-36.16,175.39,0,53.13,9.53,106.38,28.77,156.99,19.23,50.61,48.21,98.56,86.78,140.8l651.08,713.07.53.58c.65.71,1.31,1.4,1.99,2.08.64.64,1.31,1.27,1.99,1.89.16.15.34.25.5.4,1.93,1.72,3.93,3.32,6,4.76.29.2.58.38.87.58,2.18,1.46,4.42,2.81,6.73,3.96.02.01.05.02.07.04.05.03.11.05.16.08.09.04.18.09.27.13,0,0,0,0,0,0,8.54,4.16,17.8,6.23,27.05,6.23h.04c9.24,0,18.5-2.06,27.04-6.22.01,0,.03-.01.04-.02.07-.04.15-.07.22-.11,1.37-.67,2.71-1.41,4.04-2.2.53-.31,1.05-.66,1.57-.99.79-.5,1.58-1,2.35-1.53.59-.41,1.16-.85,1.74-1.28.69-.52,1.38-1.05,2.05-1.6.56-.46,1.11-.93,1.66-1.41.32-.28.65-.53.96-.82.68-.62,1.34-1.25,1.98-1.89.68-.68,1.34-1.37,1.99-2.08l.53-.58,651.07-713.07c38.58-42.24,67.55-90.2,86.78-140.8,19.23-50.61,28.77-103.86,28.77-156.99,0-59.86-12.09-119.61-36.16-175.39Z"/></g></svg>