<svg class="svg-icon" viewBox="0 0 1024 1024" version="1.1" xmlns="http://www.w3.org/2000/svg"><path d="M447.969 874.19c0 17.51-14.508 32.018-32.018 32.018L159.811 906.208c-17.51 0-32.018-14.508-32.018-32.018L127.793 169.804c0-17.51 14.508-32.018 32.018-32.018l256.141 0c17.51 0 32.018 14.508 32.018 32.018L447.97 874.19zM896.215 874.19c0 17.51-14.508 32.018-32.018 32.018L608.057 906.208c-17.51 0-32.018-14.508-32.018-32.018L576.039 169.804c0-17.51 14.508-32.018 32.018-32.018l256.141 0c17.51 0 32.018 14.508 32.018 32.018L896.216 874.19z"  /></svg>